<svg width="95" height="95" viewBox="0 0 95 95" fill="none" xmlns="http://www.w3.org/2000/svg">
<defs>
<linearGradient id="Gradient1" x1="0" x2="0" y1="0" y2="1">
<stop offset="0%" stop-color="#8CA6DB"/>
<stop offset="100%" stop-color="#B993D6"/>
</linearGradient>
</defs>
<path d="M47.5 1.97917C31.1041 1.97917 17.8125 15.2707 17.8125 31.6667C17.8125 49.3785 40.2922 72.233 46.1289 77.8684C46.8979 78.6109 48.1021 78.6109 48.8711 77.8684C54.7078 72.233 77.1875 49.3785 77.1875 31.6667C77.1875 15.2707 63.8959 1.97917 47.5 1.97917Z" fill="url(#Gradient1)"/>
<path d="M47.5013 41.5625C52.9666 41.5625 57.3971 37.132 57.3971 31.6667C57.3971 26.2014 52.9666 21.7708 47.5013 21.7708C42.036 21.7708 37.6055 26.2014 37.6055 31.6667C37.6055 37.132 42.036 41.5625 47.5013 41.5625Z" fill="white"/>
</svg>
