<?xml version="1.0" standalone="no"?>
<!DOCTYPE svg PUBLIC "-//W3C//DTD SVG 20010904//EN"
 "http://www.w3.org/TR/2001/REC-SVG-20010904/DTD/svg10.dtd">
<svg version="1.0" xmlns="http://www.w3.org/2000/svg"
 width="516.000000pt" height="516.000000pt" viewBox="0 0 516.000000 516.000000"
 preserveAspectRatio="xMidYMid meet">
<metadata>
Created by potrace 1.14, written by Peter Selinger 2001-2017
</metadata>
<g transform="translate(0.000000,516.000000) scale(0.100000,-0.100000)"
fill="#000000" stroke="none">
<path d="M283 5062 c-100 -35 -171 -115 -193 -216 -8 -36 -10 -693 -8 -2296
l3 -2245 21 -46 c31 -66 78 -114 142 -146 l57 -28 2275 0 2275 0 57 28 c64 32
111 80 142 146 l21 46 0 2275 0 2275 -28 57 c-32 64 -80 111 -146 142 l-46 21
-2260 2 c-2149 2 -2263 2 -2312 -15z m2528 -308 c146 -43 244 -153 270 -301
28 -156 -61 -322 -209 -391 -50 -24 -69 -27 -157 -27 -89 0 -106 3 -157 28
-73 36 -139 101 -174 174 -40 80 -45 203 -14 286 42 113 139 200 258 232 65
18 119 18 183 -1z m183 -1150 c14 -14 16 -136 16 -1199 0 -1267 -1 -1308 -51
-1485 -60 -218 -215 -394 -415 -472 -136 -52 -353 -72 -531 -47 -89 12 -109
21 -118 50 -12 35 47 431 66 450 15 15 32 16 123 12 86 -5 114 -3 152 12 104
40 157 127 174 286 6 56 10 542 10 1200 0 891 3 1109 13 1123 10 14 59 24 243
51 269 39 297 40 318 19z"/>
</g>
</svg>
